<?xml version="1.0" standalone="no"?>
<!DOCTYPE svg PUBLIC "-//W3C//DTD SVG 20010904//EN"
 "http://www.w3.org/TR/2001/REC-SVG-20010904/DTD/svg10.dtd">
<svg version="1.0" xmlns="http://www.w3.org/2000/svg"
 width="300.000000pt" height="300.000000pt" viewBox="0 0 300.000000 300.000000"
 preserveAspectRatio="xMidYMid meet">
<metadata>
Created by potrace 1.10, written by Peter Selinger 2001-2011
</metadata>
<g transform="translate(0.000000,300.000000) scale(0.100000,-0.100000)"
fill="#000000" stroke="none">
<path d="M864 2411 c-2 -2 -4 -89 -4 -193 l0 -188 193 0 192 0 -2 191 -1 190
-187 2 c-103 1 -189 0 -191 -2z m341 -186 l0 -150 -144 -3 c-109 -2 -146 1
-153 10 -14 22 -10 286 5 291 6 3 75 4 152 3 l140 -1 0 -150z"/>
<path d="M1310 2223 l0 -193 190 0 190 0 0 193 0 192 -190 0 -190 0 0 -192z
m347 12 c2 -77 -1 -146 -6 -153 -6 -11 -42 -14 -149 -14 -78 0 -146 3 -152 7
-11 7 -14 287 -3 299 4 3 75 5 157 4 l151 -3 2 -140z"/>
<path d="M1755 2220 l0 -190 193 0 192 0 0 190 0 190 -192 0 -193 0 0 -190z
m340 0 l0 -155 -144 -3 c-109 -2 -146 1 -153 10 -14 22 -10 296 5 302 6 3 75
4 152 3 l140 -2 0 -155z"/>
<path d="M860 1763 l0 -193 193 0 192 0 0 193 0 192 -193 0 -192 0 0 -192z
m338 149 c9 -7 12 -44 10 -153 l-3 -144 -150 0 -150 0 -3 140 c-1 76 0 145 2
152 4 10 39 13 143 13 76 0 144 -4 151 -8z"/>
<path d="M1760 1955 c0 -3 -1 -88 -1 -190 l0 -186 188 0 188 0 3 191 2 190
-190 0 c-104 0 -190 -2 -190 -5z m340 -190 l0 -156 -152 3 -153 3 -3 153 -3
152 156 0 155 0 0 -155z"/>
<path d="M864 1491 c-2 -2 -4 -89 -4 -193 l0 -188 193 0 192 0 -2 191 -2 190
-186 2 c-103 1 -189 0 -191 -2z m343 -176 c0 -83 -3 -145 -9 -152 -15 -18
-271 -18 -286 0 -11 13 -17 253 -6 280 6 16 22 17 153 15 l146 -3 2 -140z"/>
<path d="M1310 1303 l0 -193 190 0 190 0 0 193 0 192 -190 0 -190 0 0 -192z
m336 145 c5 -7 8 -73 9 -146 1 -117 -2 -135 -17 -143 -22 -12 -259 -11 -278 0
-11 8 -14 38 -16 138 -1 70 3 136 8 146 8 15 25 17 148 17 100 0 141 -3 146
-12z"/>
<path d="M1760 1495 c-1 0 -2 -87 -3 -193 l-2 -192 193 0 192 0 0 193 0 192
-190 0 c-104 0 -190 0 -190 0z m338 -184 c2 -109 -1 -146 -10 -153 -21 -13
-272 -10 -286 4 -13 13 -18 279 -5 292 4 3 72 5 152 4 l146 -3 3 -144z"/>
<path d="M1560 837 c0 -98 4 -147 12 -155 7 -7 29 -12 50 -12 34 0 38 3 38 25
0 18 -5 25 -20 25 -18 0 -20 7 -20 69 0 61 3 70 20 76 11 4 20 15 20 26 0 16
-5 19 -20 14 -17 -6 -20 -2 -20 28 0 34 -13 47 -46 47 -11 0 -14 -26 -14 -143z"/>
<path d="M2079 976 c-2 -2 -3 -72 -1 -155 l3 -151 30 0 29 0 0 79 c0 59 4 84
16 95 18 19 28 20 55 6 16 -9 19 -22 19 -95 l0 -85 35 0 35 0 0 68 c0 123 -28
172 -97 172 -17 0 -38 -7 -47 -15 -22 -22 -25 -19 -19 21 5 29 2 40 -12 50
-19 14 -38 18 -46 10z"/>
<path d="M1708 945 c3 -18 11 -25 28 -25 19 0 24 5 24 25 0 21 -5 25 -29 25
-25 0 -28 -3 -23 -25z"/>
<path d="M2348 945 c3 -18 11 -25 28 -25 19 0 24 5 24 25 0 21 -5 25 -29 25
-25 0 -28 -3 -23 -25z"/>
<path d="M653 900 c-53 -22 -71 -131 -30 -191 19 -28 30 -35 63 -37 28 -2 45
2 54 13 20 25 25 18 22 -30 -4 -50 9 -75 39 -75 18 0 19 9 19 124 0 69 -4 136
-10 150 -17 46 -98 70 -157 46z m89 -57 c23 -20 24 -85 2 -107 -34 -35 -84 -2
-84 54 0 32 26 70 47 70 9 0 25 -7 35 -17z"/>
<path d="M850 828 c0 -46 3 -93 6 -106 14 -52 122 -71 168 -29 22 20 25 31 28
120 4 95 3 97 -18 97 -33 0 -39 -16 -35 -92 2 -57 0 -69 -19 -88 -19 -19 -24
-20 -43 -7 -20 13 -22 24 -23 98 l-2 84 -31 3 -31 3 0 -83z"/>
<path d="M1112 890 c-30 -28 -30 -55 1 -46 12 4 42 10 66 13 38 5 43 4 40 -12
-3 -13 -20 -22 -58 -31 -60 -13 -81 -33 -81 -76 0 -42 32 -68 85 -68 89 0 115
30 115 135 0 57 -3 66 -26 84 -36 29 -112 29 -142 1z m108 -125 c0 -29 -39
-59 -64 -49 -10 4 -16 15 -14 27 3 17 25 31 76 46 1 1 2 -10 2 -24z"/>
<path d="M1359 895 c-35 -19 -49 -62 -49 -151 l0 -74 35 0 34 0 3 93 c3 91 3
92 29 95 38 4 48 -15 51 -103 3 -79 3 -80 31 -83 l27 -3 0 85 c0 47 -5 96 -11
109 -21 45 -97 61 -150 32z"/>
<path d="M1710 789 l0 -119 25 0 25 0 0 114 c0 113 0 114 -25 118 l-25 5 0
-118z"/>
<path d="M1874 900 c-46 -18 -54 -45 -54 -187 0 -140 4 -150 44 -120 14 10 17
24 15 59 -4 44 -3 45 16 32 23 -17 69 -18 97 -3 62 33 61 181 -2 214 -32 16
-83 19 -116 5z m90 -62 c44 -63 -17 -154 -68 -102 -9 9 -16 32 -16 54 0 64 52
94 84 48z"/>
<path d="M2348 789 l-3 -119 28 0 28 0 -3 111 c-3 105 -4 112 -25 120 -22 8
-22 7 -25 -112z"/>
</g>
</svg>
