<?xml version="1.0" standalone="no"?>
<!DOCTYPE svg PUBLIC "-//W3C//DTD SVG 20010904//EN"
 "http://www.w3.org/TR/2001/REC-SVG-20010904/DTD/svg10.dtd">
<svg version="1.0" xmlns="http://www.w3.org/2000/svg"
 width="300.000000pt" height="133.000000pt" viewBox="0 0 300.000000 133.000000"
 preserveAspectRatio="xMidYMid meet">
<metadata>
Created by potrace 1.10, written by Peter Selinger 2001-2011
</metadata>
<g transform="translate(0.000000,133.000000) scale(0.100000,-0.100000)"
fill="#000000" stroke="none">
<path d="M1178 1084 l-38 -41 0 -99 c1 -80 3 -95 12 -79 7 11 13 47 14 80 3
85 3 85 14 85 6 0 10 -21 10 -46 0 -25 5 -55 11 -66 9 -17 6 -26 -25 -57 l-36
-37 0 -198 0 -198 40 41 40 41 -2 308 -3 307 -37 -41z m5 -442 l-18 -27 -3 28
c-2 18 4 37 15 49 l18 20 3 -21 c2 -12 -5 -34 -15 -49z"/>
<path d="M1067 972 l-37 -38 1 -99 c1 -97 1 -99 14 -59 7 23 12 62 11 88 -1
30 2 46 10 46 7 0 13 -25 16 -67 5 -64 3 -70 -23 -98 l-28 -30 -3 -198 c-2
-108 -1 -197 2 -197 3 0 19 18 37 39 l32 38 3 307 c2 168 3 306 3 306 -1 0
-18 -17 -38 -38z m9 -417 c-12 -35 -14 -36 -21 -16 -5 15 -1 29 11 42 23 26
26 20 10 -26z"/>
<path d="M1288 970 l-35 -39 -1 -196 -1 -196 39 40 39 40 3 196 c2 107 0 195
-3 195 -4 0 -22 -18 -41 -40z m9 -217 c-21 -21 -27 -15 -16 16 7 19 12 22 21
13 9 -9 8 -16 -5 -29z"/>
<path d="M1904 899 c-42 -12 -65 -40 -71 -86 -7 -55 28 -95 109 -122 74 -25
98 -45 98 -82 0 -44 -44 -72 -103 -66 -26 2 -56 12 -67 22 -19 17 -22 17 -36
3 -15 -15 -14 -18 10 -33 66 -43 172 -38 214 10 30 36 30 98 -1 129 -12 12
-55 35 -95 50 -40 15 -77 36 -82 46 -17 31 -11 58 16 79 32 25 74 27 116 5 21
-11 33 -13 41 -5 15 15 -8 39 -52 51 -42 12 -55 11 -97 -1z"/>
<path d="M948 854 l-38 -41 0 -194 0 -194 40 41 40 40 -2 194 -3 195 -37 -41z
m17 -178 c0 -80 -4 -139 -10 -145 -11 -11 -19 212 -10 257 13 55 20 12 20
-112z"/>
<path d="M1408 863 l-38 -39 0 -194 0 -195 40 41 40 40 -2 192 -3 193 -37 -38z
m12 -198 c0 -98 -4 -156 -11 -160 -6 -4 -12 -5 -15 -2 -8 8 -9 291 -2 310 19
46 28 -3 28 -148z"/>
<path d="M1550 879 c0 -20 4 -21 95 -17 52 1 95 2 95 1 0 -1 -45 -73 -100
-161 -55 -88 -100 -167 -100 -176 0 -14 16 -16 125 -16 120 0 125 1 125 21 0
19 -5 20 -100 17 -55 -2 -100 -2 -100 -2 0 1 45 74 100 163 55 89 100 168 100
176 0 12 -20 15 -120 15 -115 0 -120 -1 -120 -21z"/>
<path d="M1321 570 c-1 -8 -4 -42 -7 -75 -6 -83 -13 -107 -27 -102 -7 2 -14
30 -17 68 -4 57 -6 60 -12 30 -5 -18 -8 -65 -8 -105 l0 -71 40 41 41 40 -4 95
c-1 51 -4 87 -6 79z"/>
<path d="M1208 447 c-5 -10 -8 -46 -8 -78 0 -67 -16 -112 -31 -88 -5 8 -9 37
-9 64 0 28 -5 57 -10 65 -7 10 -10 -20 -10 -95 l0 -110 40 41 41 40 -3 90 c-2
52 -6 81 -10 71z"/>
</g>
</svg>
